# xmcd
#
# Track frame offsets:
#	150
#	13984
#	26216
#	39732
#	52828
#	66440
#	80135
#	94409
#	108702
#	123465
#	136353
#	149973
#	163491
#	176383
#	189041
#	200604
#	214110
#	225963
#	238599
#	250737
#	262395
#	273762
#	286161
#	298839
#	311127
#
# Disc length: 4310 seconds
#
# Revision: 1
# Processed by: cddbd v1.5.2PL0 Copyright (c) Steve Scherf et al.
# Submitted via: audiograbber 1.83.01
#
DISCID=8f10d419
DTITLE=T-Bone Walker - You're My Best Poker Hand (The Definitive Collection) CD
DTITLE=02
DYEAR=2011
DGENRE=Blues
TTITLE0=T-Bone Shuffle
TTITLE1=That's Better For Me
TTITLE2=Vacation Blues
TTITLE3=Prison Blues
TTITLE4=Home Town Blues
TTITLE5=I'm Gonna Move You Out And Get Somebody Else
TTITLE6=She's The No-Sleepin'est Woman
TTITLE7=Plain Old Downhome Blues
TTITLE8=Born To Be No Good
TTITLE9=I Want A Little Girl
TTITLE10=I'm Still In Love With You
TTITLE11=You're My Best Poker Hand
TTITLE12=West Side Baby
TTITLE13=Glamor Girl
TTITLE14=Strollin' With Bone
TTITLE15=You Don't Love Me
TTITLE16=The Hustle Is On
TTITLE17=Baby Broke My Heart
TTITLE18=Evil Hearted Woman
TTITLE19=No Reason
TTITLE20=Look Me in the Eye
TTITLE21=Alimony Blues
TTITLE22=Life Is Too Short
TTITLE23=You Don t Understand
TTITLE24=I Get So Weary
EXTD=
EXTT0=
EXTT1=
EXTT2=
EXTT3=
EXTT4=
EXTT5=
EXTT6=
EXTT7=
EXTT8=
EXTT9=
EXTT10=
EXTT11=
EXTT12=
EXTT13=
EXTT14=
EXTT15=
EXTT16=
EXTT17=
EXTT18=
EXTT19=
EXTT20=
EXTT21=
EXTT22=
EXTT23=
EXTT24=
PLAYORDER=
